G04 #@! TF.FileFunction,Drawing*
%FSLAX46Y46*%
G04 Gerber Fmt 4.6, Leading zero omitted, Abs format (unit mm)*
G04 Created by KiCad (PCBNEW 4.0.2-stable) date 07/05/2016 12:23:03 p. m.*
%MOMM*%
G01*
G04 APERTURE LIST*
%ADD10C,0.100000*%
%ADD11C,0.300000*%
%ADD12C,0.150000*%
G04 APERTURE END LIST*
D10*
D11*
X127000716Y-87998571D02*
X127929287Y-87998571D01*
X127429287Y-88570000D01*
X127643573Y-88570000D01*
X127786430Y-88641429D01*
X127857859Y-88712857D01*
X127929287Y-88855714D01*
X127929287Y-89212857D01*
X127857859Y-89355714D01*
X127786430Y-89427143D01*
X127643573Y-89498571D01*
X127215001Y-89498571D01*
X127072144Y-89427143D01*
X127000716Y-89355714D01*
X129357858Y-89498571D02*
X128500715Y-89498571D01*
X128929287Y-89498571D02*
X128929287Y-87998571D01*
X128786430Y-88212857D01*
X128643572Y-88355714D01*
X128500715Y-88427143D01*
X130000715Y-89355714D02*
X130072143Y-89427143D01*
X130000715Y-89498571D01*
X129929286Y-89427143D01*
X130000715Y-89355714D01*
X130000715Y-89498571D01*
X130572144Y-87998571D02*
X131572144Y-87998571D01*
X130929287Y-89498571D01*
X132857858Y-87998571D02*
X132143572Y-87998571D01*
X132072143Y-88712857D01*
X132143572Y-88641429D01*
X132286429Y-88570000D01*
X132643572Y-88570000D01*
X132786429Y-88641429D01*
X132857858Y-88712857D01*
X132929286Y-88855714D01*
X132929286Y-89212857D01*
X132857858Y-89355714D01*
X132786429Y-89427143D01*
X132643572Y-89498571D01*
X132286429Y-89498571D01*
X132143572Y-89427143D01*
X132072143Y-89355714D01*
X133857857Y-87998571D02*
X134000714Y-87998571D01*
X134143571Y-88070000D01*
X134215000Y-88141429D01*
X134286429Y-88284286D01*
X134357857Y-88570000D01*
X134357857Y-88927143D01*
X134286429Y-89212857D01*
X134215000Y-89355714D01*
X134143571Y-89427143D01*
X134000714Y-89498571D01*
X133857857Y-89498571D01*
X133715000Y-89427143D01*
X133643571Y-89355714D01*
X133572143Y-89212857D01*
X133500714Y-88927143D01*
X133500714Y-88570000D01*
X133572143Y-88284286D01*
X133643571Y-88141429D01*
X133715000Y-88070000D01*
X133857857Y-87998571D01*
X135000714Y-89498571D02*
X135000714Y-88498571D01*
X135000714Y-88641429D02*
X135072142Y-88570000D01*
X135215000Y-88498571D01*
X135429285Y-88498571D01*
X135572142Y-88570000D01*
X135643571Y-88712857D01*
X135643571Y-89498571D01*
X135643571Y-88712857D02*
X135715000Y-88570000D01*
X135857857Y-88498571D01*
X136072142Y-88498571D01*
X136215000Y-88570000D01*
X136286428Y-88712857D01*
X136286428Y-89498571D01*
X137000714Y-89498571D02*
X137000714Y-88498571D01*
X137000714Y-88641429D02*
X137072142Y-88570000D01*
X137215000Y-88498571D01*
X137429285Y-88498571D01*
X137572142Y-88570000D01*
X137643571Y-88712857D01*
X137643571Y-89498571D01*
X137643571Y-88712857D02*
X137715000Y-88570000D01*
X137857857Y-88498571D01*
X138072142Y-88498571D01*
X138215000Y-88570000D01*
X138286428Y-88712857D01*
X138286428Y-89498571D01*
X116840000Y-90170000D02*
X148590000Y-90170000D01*
X116840000Y-92710000D02*
X116840000Y-87470000D01*
X148590000Y-92710000D02*
X148590000Y-87470000D01*
X148590000Y-90170000D02*
X147463496Y-90756421D01*
X148590000Y-90170000D02*
X147463496Y-89583579D01*
X116840000Y-90170000D02*
X117966504Y-90756421D01*
X116840000Y-90170000D02*
X117966504Y-89583579D01*
X153158571Y-97862144D02*
X153230000Y-97933573D01*
X153301429Y-98076430D01*
X153301429Y-98433573D01*
X153230000Y-98576430D01*
X153158571Y-98647859D01*
X153015714Y-98719287D01*
X152872857Y-98719287D01*
X152658571Y-98647859D01*
X151801429Y-97790716D01*
X151801429Y-98719287D01*
X151801429Y-100147858D02*
X151801429Y-99290715D01*
X151801429Y-99719287D02*
X153301429Y-99719287D01*
X153087143Y-99576430D01*
X152944286Y-99433572D01*
X152872857Y-99290715D01*
X151944286Y-100790715D02*
X151872857Y-100862143D01*
X151801429Y-100790715D01*
X151872857Y-100719286D01*
X151944286Y-100790715D01*
X151801429Y-100790715D01*
X153301429Y-102219287D02*
X153301429Y-101505001D01*
X152587143Y-101433572D01*
X152658571Y-101505001D01*
X152730000Y-101647858D01*
X152730000Y-102005001D01*
X152658571Y-102147858D01*
X152587143Y-102219287D01*
X152444286Y-102290715D01*
X152087143Y-102290715D01*
X151944286Y-102219287D01*
X151872857Y-102147858D01*
X151801429Y-102005001D01*
X151801429Y-101647858D01*
X151872857Y-101505001D01*
X151944286Y-101433572D01*
X151801429Y-103005000D02*
X151801429Y-103290715D01*
X151872857Y-103433572D01*
X151944286Y-103505000D01*
X152158571Y-103647858D01*
X152444286Y-103719286D01*
X153015714Y-103719286D01*
X153158571Y-103647858D01*
X153230000Y-103576429D01*
X153301429Y-103433572D01*
X153301429Y-103147858D01*
X153230000Y-103005000D01*
X153158571Y-102933572D01*
X153015714Y-102862143D01*
X152658571Y-102862143D01*
X152515714Y-102933572D01*
X152444286Y-103005000D01*
X152372857Y-103147858D01*
X152372857Y-103433572D01*
X152444286Y-103576429D01*
X152515714Y-103647858D01*
X152658571Y-103719286D01*
X153301429Y-104647857D02*
X153301429Y-104790714D01*
X153230000Y-104933571D01*
X153158571Y-105005000D01*
X153015714Y-105076429D01*
X152730000Y-105147857D01*
X152372857Y-105147857D01*
X152087143Y-105076429D01*
X151944286Y-105005000D01*
X151872857Y-104933571D01*
X151801429Y-104790714D01*
X151801429Y-104647857D01*
X151872857Y-104505000D01*
X151944286Y-104433571D01*
X152087143Y-104362143D01*
X152372857Y-104290714D01*
X152730000Y-104290714D01*
X153015714Y-104362143D01*
X153158571Y-104433571D01*
X153230000Y-104505000D01*
X153301429Y-104647857D01*
X151801429Y-105790714D02*
X152801429Y-105790714D01*
X152658571Y-105790714D02*
X152730000Y-105862142D01*
X152801429Y-106005000D01*
X152801429Y-106219285D01*
X152730000Y-106362142D01*
X152587143Y-106433571D01*
X151801429Y-106433571D01*
X152587143Y-106433571D02*
X152730000Y-106505000D01*
X152801429Y-106647857D01*
X152801429Y-106862142D01*
X152730000Y-107005000D01*
X152587143Y-107076428D01*
X151801429Y-107076428D01*
X151801429Y-107790714D02*
X152801429Y-107790714D01*
X152658571Y-107790714D02*
X152730000Y-107862142D01*
X152801429Y-108005000D01*
X152801429Y-108219285D01*
X152730000Y-108362142D01*
X152587143Y-108433571D01*
X151801429Y-108433571D01*
X152587143Y-108433571D02*
X152730000Y-108505000D01*
X152801429Y-108647857D01*
X152801429Y-108862142D01*
X152730000Y-109005000D01*
X152587143Y-109076428D01*
X151801429Y-109076428D01*
X151130000Y-92710000D02*
X151130000Y-114300000D01*
X148590000Y-92710000D02*
X153830000Y-92710000D01*
X148590000Y-114300000D02*
X153830000Y-114300000D01*
X151130000Y-114300000D02*
X150543579Y-113173496D01*
X151130000Y-114300000D02*
X151716421Y-113173496D01*
X151130000Y-92710000D02*
X150543579Y-93836504D01*
X151130000Y-92710000D02*
X151716421Y-93836504D01*
D12*
X116840000Y-111760000D02*
X116840000Y-110490000D01*
X116840000Y-114300000D02*
X116840000Y-111760000D01*
X148590000Y-114300000D02*
X116840000Y-114300000D01*
X148590000Y-92710000D02*
X148590000Y-114300000D01*
X116840000Y-92710000D02*
X148590000Y-92710000D01*
X116840000Y-113030000D02*
X116840000Y-92710000D01*
M02*
