%FSLAX45Y45*%
G04 Gerber Fmt 4.5, Leading zero omitted, Abs format (unit mm)*
G04 Created by KiCad (PCBNEW 4.0.2-stable) date 07/05/2016 12:33:00 p. m.*
%MOMM*%
G01*
G04 APERTURE LIST*
%ADD10C,0.127000*%
%ADD11C,0.150000*%
%ADD12C,0.200000*%
%ADD13C,0.300000*%
G04 APERTURE END LIST*
D10*
D11*
X11684000Y-11176000D02*
X11684000Y-11049000D01*
X11684000Y-11430000D02*
X11684000Y-11176000D01*
X14859000Y-11430000D02*
X11684000Y-11430000D01*
X14859000Y-9271000D02*
X14859000Y-11430000D01*
X11684000Y-9271000D02*
X14859000Y-9271000D01*
X11684000Y-11303000D02*
X11684000Y-9271000D01*
D12*
X12919000Y-11013694D02*
X12989104Y-11083798D01*
X12989104Y-11013694D02*
X12919000Y-11083798D01*
X13935000Y-11013694D02*
X14005104Y-11083798D01*
X14005104Y-11013694D02*
X13935000Y-11083798D01*
X13256000Y-10287000D02*
G75*
G03X13256000Y-10287000I-40000J0D01*
G01*
X13756000Y-10287000D02*
G75*
G03X13756000Y-10287000I-40000J0D01*
G01*
X14010000Y-9652000D02*
G75*
G03X14010000Y-9652000I-40000J0D01*
G01*
X14264000Y-9652000D02*
G75*
G03X14264000Y-9652000I-40000J0D01*
G01*
X14224000Y-9992360D02*
X14224000Y-10073640D01*
X14183360Y-10033000D02*
X14264640Y-10033000D01*
X14224000Y-10754360D02*
X14224000Y-10835640D01*
X14183360Y-10795000D02*
X14264640Y-10795000D01*
X14605000Y-9992360D02*
X14605000Y-10073640D01*
X14564360Y-10033000D02*
X14645640Y-10033000D01*
X14605000Y-10754360D02*
X14605000Y-10835640D01*
X14564360Y-10795000D02*
X14645640Y-10795000D01*
X13370382Y-9687383D02*
X13370382Y-9616618D01*
X13299617Y-9616618D01*
X13299617Y-9687383D01*
X13370382Y-9687383D01*
X13624382Y-9687383D02*
X13624382Y-9616618D01*
X13553617Y-9616618D01*
X13553617Y-9687383D01*
X13624382Y-9687383D01*
X12319000Y-9855200D02*
X12395200Y-9779000D01*
X12319000Y-9702800D01*
X12242800Y-9779000D01*
X12319000Y-9855200D01*
X12319000Y-10363200D02*
X12395200Y-10287000D01*
X12319000Y-10210800D01*
X12242800Y-10287000D01*
X12319000Y-10363200D01*
X12319000Y-10871200D02*
X12395200Y-10795000D01*
X12319000Y-10718800D01*
X12242800Y-10795000D01*
X12319000Y-10871200D01*
D13*
X11947928Y-11903214D02*
X11947928Y-11603214D01*
X12019357Y-11603214D01*
X12062214Y-11617500D01*
X12090786Y-11646071D01*
X12105071Y-11674643D01*
X12119357Y-11731786D01*
X12119357Y-11774643D01*
X12105071Y-11831786D01*
X12090786Y-11860357D01*
X12062214Y-11888929D01*
X12019357Y-11903214D01*
X11947928Y-11903214D01*
X12247928Y-11903214D02*
X12247928Y-11703214D01*
X12247928Y-11760357D02*
X12262214Y-11731786D01*
X12276500Y-11717500D01*
X12305071Y-11703214D01*
X12333643Y-11703214D01*
X12433643Y-11903214D02*
X12433643Y-11703214D01*
X12433643Y-11603214D02*
X12419357Y-11617500D01*
X12433643Y-11631786D01*
X12447928Y-11617500D01*
X12433643Y-11603214D01*
X12433643Y-11631786D01*
X12619357Y-11903214D02*
X12590786Y-11888929D01*
X12576500Y-11860357D01*
X12576500Y-11603214D01*
X12776500Y-11903214D02*
X12747928Y-11888929D01*
X12733643Y-11860357D01*
X12733643Y-11603214D01*
X13119357Y-11903214D02*
X13119357Y-11603214D01*
X13219357Y-11817500D01*
X13319357Y-11603214D01*
X13319357Y-11903214D01*
X13590786Y-11903214D02*
X13590786Y-11746071D01*
X13576500Y-11717500D01*
X13547928Y-11703214D01*
X13490786Y-11703214D01*
X13462214Y-11717500D01*
X13590786Y-11888929D02*
X13562214Y-11903214D01*
X13490786Y-11903214D01*
X13462214Y-11888929D01*
X13447928Y-11860357D01*
X13447928Y-11831786D01*
X13462214Y-11803214D01*
X13490786Y-11788929D01*
X13562214Y-11788929D01*
X13590786Y-11774643D01*
X13733643Y-11703214D02*
X13733643Y-12003214D01*
X13733643Y-11717500D02*
X13762214Y-11703214D01*
X13819357Y-11703214D01*
X13847928Y-11717500D01*
X13862214Y-11731786D01*
X13876500Y-11760357D01*
X13876500Y-11846071D01*
X13862214Y-11874643D01*
X13847928Y-11888929D01*
X13819357Y-11903214D01*
X13762214Y-11903214D01*
X13733643Y-11888929D01*
X14005071Y-11874643D02*
X14019357Y-11888929D01*
X14005071Y-11903214D01*
X13990786Y-11888929D01*
X14005071Y-11874643D01*
X14005071Y-11903214D01*
X14005071Y-11717500D02*
X14019357Y-11731786D01*
X14005071Y-11746071D01*
X13990786Y-11731786D01*
X14005071Y-11717500D01*
X14005071Y-11746071D01*
X11606396Y-12362448D02*
X11676500Y-12432552D01*
X11676500Y-12362448D02*
X11606396Y-12432552D01*
X12005071Y-12233214D02*
X12033643Y-12233214D01*
X12062214Y-12247500D01*
X12076500Y-12261786D01*
X12090786Y-12290357D01*
X12105071Y-12347500D01*
X12105071Y-12418929D01*
X12090786Y-12476071D01*
X12076500Y-12504643D01*
X12062214Y-12518929D01*
X12033643Y-12533214D01*
X12005071Y-12533214D01*
X11976500Y-12518929D01*
X11962214Y-12504643D01*
X11947928Y-12476071D01*
X11933643Y-12418929D01*
X11933643Y-12347500D01*
X11947928Y-12290357D01*
X11962214Y-12261786D01*
X11976500Y-12247500D01*
X12005071Y-12233214D01*
X12233643Y-12504643D02*
X12247928Y-12518929D01*
X12233643Y-12533214D01*
X12219357Y-12518929D01*
X12233643Y-12504643D01*
X12233643Y-12533214D01*
X12347928Y-12233214D02*
X12547928Y-12233214D01*
X12419357Y-12533214D01*
X12719357Y-12233214D02*
X12747928Y-12233214D01*
X12776500Y-12247500D01*
X12790786Y-12261786D01*
X12805071Y-12290357D01*
X12819357Y-12347500D01*
X12819357Y-12418929D01*
X12805071Y-12476071D01*
X12790786Y-12504643D01*
X12776500Y-12518929D01*
X12747928Y-12533214D01*
X12719357Y-12533214D01*
X12690786Y-12518929D01*
X12676500Y-12504643D01*
X12662214Y-12476071D01*
X12647928Y-12418929D01*
X12647928Y-12347500D01*
X12662214Y-12290357D01*
X12676500Y-12261786D01*
X12690786Y-12247500D01*
X12719357Y-12233214D01*
X12947928Y-12533214D02*
X12947928Y-12333214D01*
X12947928Y-12361786D02*
X12962214Y-12347500D01*
X12990786Y-12333214D01*
X13033643Y-12333214D01*
X13062214Y-12347500D01*
X13076500Y-12376071D01*
X13076500Y-12533214D01*
X13076500Y-12376071D02*
X13090786Y-12347500D01*
X13119357Y-12333214D01*
X13162214Y-12333214D01*
X13190786Y-12347500D01*
X13205071Y-12376071D01*
X13205071Y-12533214D01*
X13347928Y-12533214D02*
X13347928Y-12333214D01*
X13347928Y-12361786D02*
X13362214Y-12347500D01*
X13390786Y-12333214D01*
X13433643Y-12333214D01*
X13462214Y-12347500D01*
X13476500Y-12376071D01*
X13476500Y-12533214D01*
X13476500Y-12376071D02*
X13490786Y-12347500D01*
X13519357Y-12333214D01*
X13562214Y-12333214D01*
X13590786Y-12347500D01*
X13605071Y-12376071D01*
X13605071Y-12533214D01*
X14190786Y-12218929D02*
X13933643Y-12604643D01*
X14576500Y-12233214D02*
X14605071Y-12233214D01*
X14633643Y-12247500D01*
X14647928Y-12261786D01*
X14662214Y-12290357D01*
X14676500Y-12347500D01*
X14676500Y-12418929D01*
X14662214Y-12476071D01*
X14647928Y-12504643D01*
X14633643Y-12518929D01*
X14605071Y-12533214D01*
X14576500Y-12533214D01*
X14547928Y-12518929D01*
X14533643Y-12504643D01*
X14519357Y-12476071D01*
X14505071Y-12418929D01*
X14505071Y-12347500D01*
X14519357Y-12290357D01*
X14533643Y-12261786D01*
X14547928Y-12247500D01*
X14576500Y-12233214D01*
X14805071Y-12504643D02*
X14819357Y-12518929D01*
X14805071Y-12533214D01*
X14790786Y-12518929D01*
X14805071Y-12504643D01*
X14805071Y-12533214D01*
X15005071Y-12233214D02*
X15033643Y-12233214D01*
X15062214Y-12247500D01*
X15076500Y-12261786D01*
X15090785Y-12290357D01*
X15105071Y-12347500D01*
X15105071Y-12418929D01*
X15090785Y-12476071D01*
X15076500Y-12504643D01*
X15062214Y-12518929D01*
X15033643Y-12533214D01*
X15005071Y-12533214D01*
X14976500Y-12518929D01*
X14962214Y-12504643D01*
X14947928Y-12476071D01*
X14933643Y-12418929D01*
X14933643Y-12347500D01*
X14947928Y-12290357D01*
X14962214Y-12261786D01*
X14976500Y-12247500D01*
X15005071Y-12233214D01*
X15219357Y-12261786D02*
X15233643Y-12247500D01*
X15262214Y-12233214D01*
X15333643Y-12233214D01*
X15362214Y-12247500D01*
X15376500Y-12261786D01*
X15390785Y-12290357D01*
X15390785Y-12318929D01*
X15376500Y-12361786D01*
X15205071Y-12533214D01*
X15390785Y-12533214D01*
X15562214Y-12361786D02*
X15533643Y-12347500D01*
X15519357Y-12333214D01*
X15505071Y-12304643D01*
X15505071Y-12290357D01*
X15519357Y-12261786D01*
X15533643Y-12247500D01*
X15562214Y-12233214D01*
X15619357Y-12233214D01*
X15647928Y-12247500D01*
X15662214Y-12261786D01*
X15676500Y-12290357D01*
X15676500Y-12304643D01*
X15662214Y-12333214D01*
X15647928Y-12347500D01*
X15619357Y-12361786D01*
X15562214Y-12361786D01*
X15533643Y-12376071D01*
X15519357Y-12390357D01*
X15505071Y-12418929D01*
X15505071Y-12476071D01*
X15519357Y-12504643D01*
X15533643Y-12518929D01*
X15562214Y-12533214D01*
X15619357Y-12533214D01*
X15647928Y-12518929D01*
X15662214Y-12504643D01*
X15676500Y-12476071D01*
X15676500Y-12418929D01*
X15662214Y-12390357D01*
X15647928Y-12376071D01*
X15619357Y-12361786D01*
X15790786Y-12233214D02*
X15790786Y-12290357D01*
X15905071Y-12233214D02*
X15905071Y-12290357D01*
X16347928Y-12647500D02*
X16333643Y-12633214D01*
X16305071Y-12590357D01*
X16290785Y-12561786D01*
X16276500Y-12518929D01*
X16262214Y-12447500D01*
X16262214Y-12390357D01*
X16276500Y-12318929D01*
X16290785Y-12276071D01*
X16305071Y-12247500D01*
X16333643Y-12204643D01*
X16347928Y-12190357D01*
X16447928Y-12261786D02*
X16462214Y-12247500D01*
X16490785Y-12233214D01*
X16562214Y-12233214D01*
X16590785Y-12247500D01*
X16605071Y-12261786D01*
X16619357Y-12290357D01*
X16619357Y-12318929D01*
X16605071Y-12361786D01*
X16433643Y-12533214D01*
X16619357Y-12533214D01*
X16976500Y-12533214D02*
X16976500Y-12233214D01*
X17105071Y-12533214D02*
X17105071Y-12376071D01*
X17090786Y-12347500D01*
X17062214Y-12333214D01*
X17019357Y-12333214D01*
X16990786Y-12347500D01*
X16976500Y-12361786D01*
X17290786Y-12533214D02*
X17262214Y-12518929D01*
X17247928Y-12504643D01*
X17233643Y-12476071D01*
X17233643Y-12390357D01*
X17247928Y-12361786D01*
X17262214Y-12347500D01*
X17290786Y-12333214D01*
X17333643Y-12333214D01*
X17362214Y-12347500D01*
X17376500Y-12361786D01*
X17390786Y-12390357D01*
X17390786Y-12476071D01*
X17376500Y-12504643D01*
X17362214Y-12518929D01*
X17333643Y-12533214D01*
X17290786Y-12533214D01*
X17562214Y-12533214D02*
X17533643Y-12518929D01*
X17519357Y-12490357D01*
X17519357Y-12233214D01*
X17790786Y-12518929D02*
X17762214Y-12533214D01*
X17705071Y-12533214D01*
X17676500Y-12518929D01*
X17662214Y-12490357D01*
X17662214Y-12376071D01*
X17676500Y-12347500D01*
X17705071Y-12333214D01*
X17762214Y-12333214D01*
X17790786Y-12347500D01*
X17805071Y-12376071D01*
X17805071Y-12404643D01*
X17662214Y-12433214D01*
X17919357Y-12518929D02*
X17947929Y-12533214D01*
X18005071Y-12533214D01*
X18033643Y-12518929D01*
X18047929Y-12490357D01*
X18047929Y-12476071D01*
X18033643Y-12447500D01*
X18005071Y-12433214D01*
X17962214Y-12433214D01*
X17933643Y-12418929D01*
X17919357Y-12390357D01*
X17919357Y-12376071D01*
X17933643Y-12347500D01*
X17962214Y-12333214D01*
X18005071Y-12333214D01*
X18033643Y-12347500D01*
X18147928Y-12647500D02*
X18162214Y-12633214D01*
X18190786Y-12590357D01*
X18205071Y-12561786D01*
X18219357Y-12518929D01*
X18233643Y-12447500D01*
X18233643Y-12390357D01*
X18219357Y-12318929D01*
X18205071Y-12276071D01*
X18190786Y-12247500D01*
X18162214Y-12204643D01*
X18147928Y-12190357D01*
X11676500Y-12793500D02*
G75*
G03X11676500Y-12793500I-40000J0D01*
G01*
X12005071Y-12629214D02*
X12033643Y-12629214D01*
X12062214Y-12643500D01*
X12076500Y-12657786D01*
X12090786Y-12686357D01*
X12105071Y-12743500D01*
X12105071Y-12814929D01*
X12090786Y-12872071D01*
X12076500Y-12900643D01*
X12062214Y-12914929D01*
X12033643Y-12929214D01*
X12005071Y-12929214D01*
X11976500Y-12914929D01*
X11962214Y-12900643D01*
X11947928Y-12872071D01*
X11933643Y-12814929D01*
X11933643Y-12743500D01*
X11947928Y-12686357D01*
X11962214Y-12657786D01*
X11976500Y-12643500D01*
X12005071Y-12629214D01*
X12233643Y-12900643D02*
X12247928Y-12914929D01*
X12233643Y-12929214D01*
X12219357Y-12914929D01*
X12233643Y-12900643D01*
X12233643Y-12929214D01*
X12419357Y-12757786D02*
X12390786Y-12743500D01*
X12376500Y-12729214D01*
X12362214Y-12700643D01*
X12362214Y-12686357D01*
X12376500Y-12657786D01*
X12390786Y-12643500D01*
X12419357Y-12629214D01*
X12476500Y-12629214D01*
X12505071Y-12643500D01*
X12519357Y-12657786D01*
X12533643Y-12686357D01*
X12533643Y-12700643D01*
X12519357Y-12729214D01*
X12505071Y-12743500D01*
X12476500Y-12757786D01*
X12419357Y-12757786D01*
X12390786Y-12772071D01*
X12376500Y-12786357D01*
X12362214Y-12814929D01*
X12362214Y-12872071D01*
X12376500Y-12900643D01*
X12390786Y-12914929D01*
X12419357Y-12929214D01*
X12476500Y-12929214D01*
X12505071Y-12914929D01*
X12519357Y-12900643D01*
X12533643Y-12872071D01*
X12533643Y-12814929D01*
X12519357Y-12786357D01*
X12505071Y-12772071D01*
X12476500Y-12757786D01*
X12719357Y-12629214D02*
X12747928Y-12629214D01*
X12776500Y-12643500D01*
X12790786Y-12657786D01*
X12805071Y-12686357D01*
X12819357Y-12743500D01*
X12819357Y-12814929D01*
X12805071Y-12872071D01*
X12790786Y-12900643D01*
X12776500Y-12914929D01*
X12747928Y-12929214D01*
X12719357Y-12929214D01*
X12690786Y-12914929D01*
X12676500Y-12900643D01*
X12662214Y-12872071D01*
X12647928Y-12814929D01*
X12647928Y-12743500D01*
X12662214Y-12686357D01*
X12676500Y-12657786D01*
X12690786Y-12643500D01*
X12719357Y-12629214D01*
X12947928Y-12929214D02*
X12947928Y-12729214D01*
X12947928Y-12757786D02*
X12962214Y-12743500D01*
X12990786Y-12729214D01*
X13033643Y-12729214D01*
X13062214Y-12743500D01*
X13076500Y-12772071D01*
X13076500Y-12929214D01*
X13076500Y-12772071D02*
X13090786Y-12743500D01*
X13119357Y-12729214D01*
X13162214Y-12729214D01*
X13190786Y-12743500D01*
X13205071Y-12772071D01*
X13205071Y-12929214D01*
X13347928Y-12929214D02*
X13347928Y-12729214D01*
X13347928Y-12757786D02*
X13362214Y-12743500D01*
X13390786Y-12729214D01*
X13433643Y-12729214D01*
X13462214Y-12743500D01*
X13476500Y-12772071D01*
X13476500Y-12929214D01*
X13476500Y-12772071D02*
X13490786Y-12743500D01*
X13519357Y-12729214D01*
X13562214Y-12729214D01*
X13590786Y-12743500D01*
X13605071Y-12772071D01*
X13605071Y-12929214D01*
X14190786Y-12614929D02*
X13933643Y-13000643D01*
X14576500Y-12629214D02*
X14605071Y-12629214D01*
X14633643Y-12643500D01*
X14647928Y-12657786D01*
X14662214Y-12686357D01*
X14676500Y-12743500D01*
X14676500Y-12814929D01*
X14662214Y-12872071D01*
X14647928Y-12900643D01*
X14633643Y-12914929D01*
X14605071Y-12929214D01*
X14576500Y-12929214D01*
X14547928Y-12914929D01*
X14533643Y-12900643D01*
X14519357Y-12872071D01*
X14505071Y-12814929D01*
X14505071Y-12743500D01*
X14519357Y-12686357D01*
X14533643Y-12657786D01*
X14547928Y-12643500D01*
X14576500Y-12629214D01*
X14805071Y-12900643D02*
X14819357Y-12914929D01*
X14805071Y-12929214D01*
X14790786Y-12914929D01*
X14805071Y-12900643D01*
X14805071Y-12929214D01*
X15005071Y-12629214D02*
X15033643Y-12629214D01*
X15062214Y-12643500D01*
X15076500Y-12657786D01*
X15090785Y-12686357D01*
X15105071Y-12743500D01*
X15105071Y-12814929D01*
X15090785Y-12872071D01*
X15076500Y-12900643D01*
X15062214Y-12914929D01*
X15033643Y-12929214D01*
X15005071Y-12929214D01*
X14976500Y-12914929D01*
X14962214Y-12900643D01*
X14947928Y-12872071D01*
X14933643Y-12814929D01*
X14933643Y-12743500D01*
X14947928Y-12686357D01*
X14962214Y-12657786D01*
X14976500Y-12643500D01*
X15005071Y-12629214D01*
X15205071Y-12629214D02*
X15390785Y-12629214D01*
X15290785Y-12743500D01*
X15333643Y-12743500D01*
X15362214Y-12757786D01*
X15376500Y-12772071D01*
X15390785Y-12800643D01*
X15390785Y-12872071D01*
X15376500Y-12900643D01*
X15362214Y-12914929D01*
X15333643Y-12929214D01*
X15247928Y-12929214D01*
X15219357Y-12914929D01*
X15205071Y-12900643D01*
X15676500Y-12929214D02*
X15505071Y-12929214D01*
X15590785Y-12929214D02*
X15590785Y-12629214D01*
X15562214Y-12672071D01*
X15533643Y-12700643D01*
X15505071Y-12714929D01*
X15790786Y-12629214D02*
X15790786Y-12686357D01*
X15905071Y-12629214D02*
X15905071Y-12686357D01*
X16347928Y-13043500D02*
X16333643Y-13029214D01*
X16305071Y-12986357D01*
X16290785Y-12957786D01*
X16276500Y-12914929D01*
X16262214Y-12843500D01*
X16262214Y-12786357D01*
X16276500Y-12714929D01*
X16290785Y-12672071D01*
X16305071Y-12643500D01*
X16333643Y-12600643D01*
X16347928Y-12586357D01*
X16590785Y-12729214D02*
X16590785Y-12929214D01*
X16519357Y-12614929D02*
X16447928Y-12829214D01*
X16633643Y-12829214D01*
X16976500Y-12929214D02*
X16976500Y-12629214D01*
X17105071Y-12929214D02*
X17105071Y-12772071D01*
X17090786Y-12743500D01*
X17062214Y-12729214D01*
X17019357Y-12729214D01*
X16990786Y-12743500D01*
X16976500Y-12757786D01*
X17290786Y-12929214D02*
X17262214Y-12914929D01*
X17247928Y-12900643D01*
X17233643Y-12872071D01*
X17233643Y-12786357D01*
X17247928Y-12757786D01*
X17262214Y-12743500D01*
X17290786Y-12729214D01*
X17333643Y-12729214D01*
X17362214Y-12743500D01*
X17376500Y-12757786D01*
X17390786Y-12786357D01*
X17390786Y-12872071D01*
X17376500Y-12900643D01*
X17362214Y-12914929D01*
X17333643Y-12929214D01*
X17290786Y-12929214D01*
X17562214Y-12929214D02*
X17533643Y-12914929D01*
X17519357Y-12886357D01*
X17519357Y-12629214D01*
X17790786Y-12914929D02*
X17762214Y-12929214D01*
X17705071Y-12929214D01*
X17676500Y-12914929D01*
X17662214Y-12886357D01*
X17662214Y-12772071D01*
X17676500Y-12743500D01*
X17705071Y-12729214D01*
X17762214Y-12729214D01*
X17790786Y-12743500D01*
X17805071Y-12772071D01*
X17805071Y-12800643D01*
X17662214Y-12829214D01*
X17919357Y-12914929D02*
X17947929Y-12929214D01*
X18005071Y-12929214D01*
X18033643Y-12914929D01*
X18047929Y-12886357D01*
X18047929Y-12872071D01*
X18033643Y-12843500D01*
X18005071Y-12829214D01*
X17962214Y-12829214D01*
X17933643Y-12814929D01*
X17919357Y-12786357D01*
X17919357Y-12772071D01*
X17933643Y-12743500D01*
X17962214Y-12729214D01*
X18005071Y-12729214D01*
X18033643Y-12743500D01*
X18147928Y-13043500D02*
X18162214Y-13029214D01*
X18190786Y-12986357D01*
X18205071Y-12957786D01*
X18219357Y-12914929D01*
X18233643Y-12843500D01*
X18233643Y-12786357D01*
X18219357Y-12714929D01*
X18205071Y-12672071D01*
X18190786Y-12643500D01*
X18162214Y-12600643D01*
X18147928Y-12586357D01*
X11635860Y-13148860D02*
X11635860Y-13230140D01*
X11595220Y-13189500D02*
X11676500Y-13189500D01*
X12005071Y-13025214D02*
X12033643Y-13025214D01*
X12062214Y-13039500D01*
X12076500Y-13053786D01*
X12090786Y-13082357D01*
X12105071Y-13139500D01*
X12105071Y-13210929D01*
X12090786Y-13268071D01*
X12076500Y-13296643D01*
X12062214Y-13310929D01*
X12033643Y-13325214D01*
X12005071Y-13325214D01*
X11976500Y-13310929D01*
X11962214Y-13296643D01*
X11947928Y-13268071D01*
X11933643Y-13210929D01*
X11933643Y-13139500D01*
X11947928Y-13082357D01*
X11962214Y-13053786D01*
X11976500Y-13039500D01*
X12005071Y-13025214D01*
X12233643Y-13296643D02*
X12247928Y-13310929D01*
X12233643Y-13325214D01*
X12219357Y-13310929D01*
X12233643Y-13296643D01*
X12233643Y-13325214D01*
X12419357Y-13153786D02*
X12390786Y-13139500D01*
X12376500Y-13125214D01*
X12362214Y-13096643D01*
X12362214Y-13082357D01*
X12376500Y-13053786D01*
X12390786Y-13039500D01*
X12419357Y-13025214D01*
X12476500Y-13025214D01*
X12505071Y-13039500D01*
X12519357Y-13053786D01*
X12533643Y-13082357D01*
X12533643Y-13096643D01*
X12519357Y-13125214D01*
X12505071Y-13139500D01*
X12476500Y-13153786D01*
X12419357Y-13153786D01*
X12390786Y-13168071D01*
X12376500Y-13182357D01*
X12362214Y-13210929D01*
X12362214Y-13268071D01*
X12376500Y-13296643D01*
X12390786Y-13310929D01*
X12419357Y-13325214D01*
X12476500Y-13325214D01*
X12505071Y-13310929D01*
X12519357Y-13296643D01*
X12533643Y-13268071D01*
X12533643Y-13210929D01*
X12519357Y-13182357D01*
X12505071Y-13168071D01*
X12476500Y-13153786D01*
X12819357Y-13325214D02*
X12647928Y-13325214D01*
X12733643Y-13325214D02*
X12733643Y-13025214D01*
X12705071Y-13068071D01*
X12676500Y-13096643D01*
X12647928Y-13110929D01*
X12947928Y-13325214D02*
X12947928Y-13125214D01*
X12947928Y-13153786D02*
X12962214Y-13139500D01*
X12990786Y-13125214D01*
X13033643Y-13125214D01*
X13062214Y-13139500D01*
X13076500Y-13168071D01*
X13076500Y-13325214D01*
X13076500Y-13168071D02*
X13090786Y-13139500D01*
X13119357Y-13125214D01*
X13162214Y-13125214D01*
X13190786Y-13139500D01*
X13205071Y-13168071D01*
X13205071Y-13325214D01*
X13347928Y-13325214D02*
X13347928Y-13125214D01*
X13347928Y-13153786D02*
X13362214Y-13139500D01*
X13390786Y-13125214D01*
X13433643Y-13125214D01*
X13462214Y-13139500D01*
X13476500Y-13168071D01*
X13476500Y-13325214D01*
X13476500Y-13168071D02*
X13490786Y-13139500D01*
X13519357Y-13125214D01*
X13562214Y-13125214D01*
X13590786Y-13139500D01*
X13605071Y-13168071D01*
X13605071Y-13325214D01*
X14190786Y-13010929D02*
X13933643Y-13396643D01*
X14576500Y-13025214D02*
X14605071Y-13025214D01*
X14633643Y-13039500D01*
X14647928Y-13053786D01*
X14662214Y-13082357D01*
X14676500Y-13139500D01*
X14676500Y-13210929D01*
X14662214Y-13268071D01*
X14647928Y-13296643D01*
X14633643Y-13310929D01*
X14605071Y-13325214D01*
X14576500Y-13325214D01*
X14547928Y-13310929D01*
X14533643Y-13296643D01*
X14519357Y-13268071D01*
X14505071Y-13210929D01*
X14505071Y-13139500D01*
X14519357Y-13082357D01*
X14533643Y-13053786D01*
X14547928Y-13039500D01*
X14576500Y-13025214D01*
X14805071Y-13296643D02*
X14819357Y-13310929D01*
X14805071Y-13325214D01*
X14790786Y-13310929D01*
X14805071Y-13296643D01*
X14805071Y-13325214D01*
X15005071Y-13025214D02*
X15033643Y-13025214D01*
X15062214Y-13039500D01*
X15076500Y-13053786D01*
X15090785Y-13082357D01*
X15105071Y-13139500D01*
X15105071Y-13210929D01*
X15090785Y-13268071D01*
X15076500Y-13296643D01*
X15062214Y-13310929D01*
X15033643Y-13325214D01*
X15005071Y-13325214D01*
X14976500Y-13310929D01*
X14962214Y-13296643D01*
X14947928Y-13268071D01*
X14933643Y-13210929D01*
X14933643Y-13139500D01*
X14947928Y-13082357D01*
X14962214Y-13053786D01*
X14976500Y-13039500D01*
X15005071Y-13025214D01*
X15205071Y-13025214D02*
X15390785Y-13025214D01*
X15290785Y-13139500D01*
X15333643Y-13139500D01*
X15362214Y-13153786D01*
X15376500Y-13168071D01*
X15390785Y-13196643D01*
X15390785Y-13268071D01*
X15376500Y-13296643D01*
X15362214Y-13310929D01*
X15333643Y-13325214D01*
X15247928Y-13325214D01*
X15219357Y-13310929D01*
X15205071Y-13296643D01*
X15505071Y-13053786D02*
X15519357Y-13039500D01*
X15547928Y-13025214D01*
X15619357Y-13025214D01*
X15647928Y-13039500D01*
X15662214Y-13053786D01*
X15676500Y-13082357D01*
X15676500Y-13110929D01*
X15662214Y-13153786D01*
X15490785Y-13325214D01*
X15676500Y-13325214D01*
X15790786Y-13025214D02*
X15790786Y-13082357D01*
X15905071Y-13025214D02*
X15905071Y-13082357D01*
X16347928Y-13439500D02*
X16333643Y-13425214D01*
X16305071Y-13382357D01*
X16290785Y-13353786D01*
X16276500Y-13310929D01*
X16262214Y-13239500D01*
X16262214Y-13182357D01*
X16276500Y-13110929D01*
X16290785Y-13068071D01*
X16305071Y-13039500D01*
X16333643Y-12996643D01*
X16347928Y-12982357D01*
X16590785Y-13125214D02*
X16590785Y-13325214D01*
X16519357Y-13010929D02*
X16447928Y-13225214D01*
X16633643Y-13225214D01*
X16976500Y-13325214D02*
X16976500Y-13025214D01*
X17105071Y-13325214D02*
X17105071Y-13168071D01*
X17090786Y-13139500D01*
X17062214Y-13125214D01*
X17019357Y-13125214D01*
X16990786Y-13139500D01*
X16976500Y-13153786D01*
X17290786Y-13325214D02*
X17262214Y-13310929D01*
X17247928Y-13296643D01*
X17233643Y-13268071D01*
X17233643Y-13182357D01*
X17247928Y-13153786D01*
X17262214Y-13139500D01*
X17290786Y-13125214D01*
X17333643Y-13125214D01*
X17362214Y-13139500D01*
X17376500Y-13153786D01*
X17390786Y-13182357D01*
X17390786Y-13268071D01*
X17376500Y-13296643D01*
X17362214Y-13310929D01*
X17333643Y-13325214D01*
X17290786Y-13325214D01*
X17562214Y-13325214D02*
X17533643Y-13310929D01*
X17519357Y-13282357D01*
X17519357Y-13025214D01*
X17790786Y-13310929D02*
X17762214Y-13325214D01*
X17705071Y-13325214D01*
X17676500Y-13310929D01*
X17662214Y-13282357D01*
X17662214Y-13168071D01*
X17676500Y-13139500D01*
X17705071Y-13125214D01*
X17762214Y-13125214D01*
X17790786Y-13139500D01*
X17805071Y-13168071D01*
X17805071Y-13196643D01*
X17662214Y-13225214D01*
X17919357Y-13310929D02*
X17947929Y-13325214D01*
X18005071Y-13325214D01*
X18033643Y-13310929D01*
X18047929Y-13282357D01*
X18047929Y-13268071D01*
X18033643Y-13239500D01*
X18005071Y-13225214D01*
X17962214Y-13225214D01*
X17933643Y-13210929D01*
X17919357Y-13182357D01*
X17919357Y-13168071D01*
X17933643Y-13139500D01*
X17962214Y-13125214D01*
X18005071Y-13125214D01*
X18033643Y-13139500D01*
X18147928Y-13439500D02*
X18162214Y-13425214D01*
X18190786Y-13382357D01*
X18205071Y-13353786D01*
X18219357Y-13310929D01*
X18233643Y-13239500D01*
X18233643Y-13182357D01*
X18219357Y-13110929D01*
X18205071Y-13068071D01*
X18190786Y-13039500D01*
X18162214Y-12996643D01*
X18147928Y-12982357D01*
X11661844Y-13620883D02*
X11661844Y-13550118D01*
X11591079Y-13550118D01*
X11591079Y-13620883D01*
X11661844Y-13620883D01*
X12105071Y-13721214D02*
X11933643Y-13721214D01*
X12019357Y-13721214D02*
X12019357Y-13421214D01*
X11990786Y-13464071D01*
X11962214Y-13492643D01*
X11933643Y-13506929D01*
X12233643Y-13692643D02*
X12247928Y-13706929D01*
X12233643Y-13721214D01*
X12219357Y-13706929D01*
X12233643Y-13692643D01*
X12233643Y-13721214D01*
X12433643Y-13421214D02*
X12462214Y-13421214D01*
X12490786Y-13435500D01*
X12505071Y-13449786D01*
X12519357Y-13478357D01*
X12533643Y-13535500D01*
X12533643Y-13606929D01*
X12519357Y-13664071D01*
X12505071Y-13692643D01*
X12490786Y-13706929D01*
X12462214Y-13721214D01*
X12433643Y-13721214D01*
X12405071Y-13706929D01*
X12390786Y-13692643D01*
X12376500Y-13664071D01*
X12362214Y-13606929D01*
X12362214Y-13535500D01*
X12376500Y-13478357D01*
X12390786Y-13449786D01*
X12405071Y-13435500D01*
X12433643Y-13421214D01*
X12719357Y-13421214D02*
X12747928Y-13421214D01*
X12776500Y-13435500D01*
X12790786Y-13449786D01*
X12805071Y-13478357D01*
X12819357Y-13535500D01*
X12819357Y-13606929D01*
X12805071Y-13664071D01*
X12790786Y-13692643D01*
X12776500Y-13706929D01*
X12747928Y-13721214D01*
X12719357Y-13721214D01*
X12690786Y-13706929D01*
X12676500Y-13692643D01*
X12662214Y-13664071D01*
X12647928Y-13606929D01*
X12647928Y-13535500D01*
X12662214Y-13478357D01*
X12676500Y-13449786D01*
X12690786Y-13435500D01*
X12719357Y-13421214D01*
X12947928Y-13721214D02*
X12947928Y-13521214D01*
X12947928Y-13549786D02*
X12962214Y-13535500D01*
X12990786Y-13521214D01*
X13033643Y-13521214D01*
X13062214Y-13535500D01*
X13076500Y-13564071D01*
X13076500Y-13721214D01*
X13076500Y-13564071D02*
X13090786Y-13535500D01*
X13119357Y-13521214D01*
X13162214Y-13521214D01*
X13190786Y-13535500D01*
X13205071Y-13564071D01*
X13205071Y-13721214D01*
X13347928Y-13721214D02*
X13347928Y-13521214D01*
X13347928Y-13549786D02*
X13362214Y-13535500D01*
X13390786Y-13521214D01*
X13433643Y-13521214D01*
X13462214Y-13535500D01*
X13476500Y-13564071D01*
X13476500Y-13721214D01*
X13476500Y-13564071D02*
X13490786Y-13535500D01*
X13519357Y-13521214D01*
X13562214Y-13521214D01*
X13590786Y-13535500D01*
X13605071Y-13564071D01*
X13605071Y-13721214D01*
X14190786Y-13406929D02*
X13933643Y-13792643D01*
X14576500Y-13421214D02*
X14605071Y-13421214D01*
X14633643Y-13435500D01*
X14647928Y-13449786D01*
X14662214Y-13478357D01*
X14676500Y-13535500D01*
X14676500Y-13606929D01*
X14662214Y-13664071D01*
X14647928Y-13692643D01*
X14633643Y-13706929D01*
X14605071Y-13721214D01*
X14576500Y-13721214D01*
X14547928Y-13706929D01*
X14533643Y-13692643D01*
X14519357Y-13664071D01*
X14505071Y-13606929D01*
X14505071Y-13535500D01*
X14519357Y-13478357D01*
X14533643Y-13449786D01*
X14547928Y-13435500D01*
X14576500Y-13421214D01*
X14805071Y-13692643D02*
X14819357Y-13706929D01*
X14805071Y-13721214D01*
X14790786Y-13706929D01*
X14805071Y-13692643D01*
X14805071Y-13721214D01*
X15005071Y-13421214D02*
X15033643Y-13421214D01*
X15062214Y-13435500D01*
X15076500Y-13449786D01*
X15090785Y-13478357D01*
X15105071Y-13535500D01*
X15105071Y-13606929D01*
X15090785Y-13664071D01*
X15076500Y-13692643D01*
X15062214Y-13706929D01*
X15033643Y-13721214D01*
X15005071Y-13721214D01*
X14976500Y-13706929D01*
X14962214Y-13692643D01*
X14947928Y-13664071D01*
X14933643Y-13606929D01*
X14933643Y-13535500D01*
X14947928Y-13478357D01*
X14962214Y-13449786D01*
X14976500Y-13435500D01*
X15005071Y-13421214D01*
X15205071Y-13421214D02*
X15390785Y-13421214D01*
X15290785Y-13535500D01*
X15333643Y-13535500D01*
X15362214Y-13549786D01*
X15376500Y-13564071D01*
X15390785Y-13592643D01*
X15390785Y-13664071D01*
X15376500Y-13692643D01*
X15362214Y-13706929D01*
X15333643Y-13721214D01*
X15247928Y-13721214D01*
X15219357Y-13706929D01*
X15205071Y-13692643D01*
X15533643Y-13721214D02*
X15590785Y-13721214D01*
X15619357Y-13706929D01*
X15633643Y-13692643D01*
X15662214Y-13649786D01*
X15676500Y-13592643D01*
X15676500Y-13478357D01*
X15662214Y-13449786D01*
X15647928Y-13435500D01*
X15619357Y-13421214D01*
X15562214Y-13421214D01*
X15533643Y-13435500D01*
X15519357Y-13449786D01*
X15505071Y-13478357D01*
X15505071Y-13549786D01*
X15519357Y-13578357D01*
X15533643Y-13592643D01*
X15562214Y-13606929D01*
X15619357Y-13606929D01*
X15647928Y-13592643D01*
X15662214Y-13578357D01*
X15676500Y-13549786D01*
X15790786Y-13421214D02*
X15790786Y-13478357D01*
X15905071Y-13421214D02*
X15905071Y-13478357D01*
X16347928Y-13835500D02*
X16333643Y-13821214D01*
X16305071Y-13778357D01*
X16290785Y-13749786D01*
X16276500Y-13706929D01*
X16262214Y-13635500D01*
X16262214Y-13578357D01*
X16276500Y-13506929D01*
X16290785Y-13464071D01*
X16305071Y-13435500D01*
X16333643Y-13392643D01*
X16347928Y-13378357D01*
X16447928Y-13449786D02*
X16462214Y-13435500D01*
X16490785Y-13421214D01*
X16562214Y-13421214D01*
X16590785Y-13435500D01*
X16605071Y-13449786D01*
X16619357Y-13478357D01*
X16619357Y-13506929D01*
X16605071Y-13549786D01*
X16433643Y-13721214D01*
X16619357Y-13721214D01*
X16976500Y-13721214D02*
X16976500Y-13421214D01*
X17105071Y-13721214D02*
X17105071Y-13564071D01*
X17090786Y-13535500D01*
X17062214Y-13521214D01*
X17019357Y-13521214D01*
X16990786Y-13535500D01*
X16976500Y-13549786D01*
X17290786Y-13721214D02*
X17262214Y-13706929D01*
X17247928Y-13692643D01*
X17233643Y-13664071D01*
X17233643Y-13578357D01*
X17247928Y-13549786D01*
X17262214Y-13535500D01*
X17290786Y-13521214D01*
X17333643Y-13521214D01*
X17362214Y-13535500D01*
X17376500Y-13549786D01*
X17390786Y-13578357D01*
X17390786Y-13664071D01*
X17376500Y-13692643D01*
X17362214Y-13706929D01*
X17333643Y-13721214D01*
X17290786Y-13721214D01*
X17562214Y-13721214D02*
X17533643Y-13706929D01*
X17519357Y-13678357D01*
X17519357Y-13421214D01*
X17790786Y-13706929D02*
X17762214Y-13721214D01*
X17705071Y-13721214D01*
X17676500Y-13706929D01*
X17662214Y-13678357D01*
X17662214Y-13564071D01*
X17676500Y-13535500D01*
X17705071Y-13521214D01*
X17762214Y-13521214D01*
X17790786Y-13535500D01*
X17805071Y-13564071D01*
X17805071Y-13592643D01*
X17662214Y-13621214D01*
X17919357Y-13706929D02*
X17947929Y-13721214D01*
X18005071Y-13721214D01*
X18033643Y-13706929D01*
X18047929Y-13678357D01*
X18047929Y-13664071D01*
X18033643Y-13635500D01*
X18005071Y-13621214D01*
X17962214Y-13621214D01*
X17933643Y-13606929D01*
X17919357Y-13578357D01*
X17919357Y-13564071D01*
X17933643Y-13535500D01*
X17962214Y-13521214D01*
X18005071Y-13521214D01*
X18033643Y-13535500D01*
X18147928Y-13835500D02*
X18162214Y-13821214D01*
X18190786Y-13778357D01*
X18205071Y-13749786D01*
X18219357Y-13706929D01*
X18233643Y-13635500D01*
X18233643Y-13578357D01*
X18219357Y-13506929D01*
X18205071Y-13464071D01*
X18190786Y-13435500D01*
X18162214Y-13392643D01*
X18147928Y-13378357D01*
X11600300Y-14057700D02*
X11676500Y-13981500D01*
X11600300Y-13905300D01*
X11524100Y-13981500D01*
X11600300Y-14057700D01*
X12105071Y-14117214D02*
X11933643Y-14117214D01*
X12019357Y-14117214D02*
X12019357Y-13817214D01*
X11990786Y-13860071D01*
X11962214Y-13888643D01*
X11933643Y-13902929D01*
X12233643Y-14088643D02*
X12247928Y-14102929D01*
X12233643Y-14117214D01*
X12219357Y-14102929D01*
X12233643Y-14088643D01*
X12233643Y-14117214D01*
X12519357Y-13817214D02*
X12376500Y-13817214D01*
X12362214Y-13960071D01*
X12376500Y-13945786D01*
X12405071Y-13931500D01*
X12476500Y-13931500D01*
X12505071Y-13945786D01*
X12519357Y-13960071D01*
X12533643Y-13988643D01*
X12533643Y-14060071D01*
X12519357Y-14088643D01*
X12505071Y-14102929D01*
X12476500Y-14117214D01*
X12405071Y-14117214D01*
X12376500Y-14102929D01*
X12362214Y-14088643D01*
X12647928Y-13845786D02*
X12662214Y-13831500D01*
X12690786Y-13817214D01*
X12762214Y-13817214D01*
X12790786Y-13831500D01*
X12805071Y-13845786D01*
X12819357Y-13874357D01*
X12819357Y-13902929D01*
X12805071Y-13945786D01*
X12633643Y-14117214D01*
X12819357Y-14117214D01*
X12947928Y-14117214D02*
X12947928Y-13917214D01*
X12947928Y-13945786D02*
X12962214Y-13931500D01*
X12990786Y-13917214D01*
X13033643Y-13917214D01*
X13062214Y-13931500D01*
X13076500Y-13960071D01*
X13076500Y-14117214D01*
X13076500Y-13960071D02*
X13090786Y-13931500D01*
X13119357Y-13917214D01*
X13162214Y-13917214D01*
X13190786Y-13931500D01*
X13205071Y-13960071D01*
X13205071Y-14117214D01*
X13347928Y-14117214D02*
X13347928Y-13917214D01*
X13347928Y-13945786D02*
X13362214Y-13931500D01*
X13390786Y-13917214D01*
X13433643Y-13917214D01*
X13462214Y-13931500D01*
X13476500Y-13960071D01*
X13476500Y-14117214D01*
X13476500Y-13960071D02*
X13490786Y-13931500D01*
X13519357Y-13917214D01*
X13562214Y-13917214D01*
X13590786Y-13931500D01*
X13605071Y-13960071D01*
X13605071Y-14117214D01*
X14190786Y-13802929D02*
X13933643Y-14188643D01*
X14576500Y-13817214D02*
X14605071Y-13817214D01*
X14633643Y-13831500D01*
X14647928Y-13845786D01*
X14662214Y-13874357D01*
X14676500Y-13931500D01*
X14676500Y-14002929D01*
X14662214Y-14060071D01*
X14647928Y-14088643D01*
X14633643Y-14102929D01*
X14605071Y-14117214D01*
X14576500Y-14117214D01*
X14547928Y-14102929D01*
X14533643Y-14088643D01*
X14519357Y-14060071D01*
X14505071Y-14002929D01*
X14505071Y-13931500D01*
X14519357Y-13874357D01*
X14533643Y-13845786D01*
X14547928Y-13831500D01*
X14576500Y-13817214D01*
X14805071Y-14088643D02*
X14819357Y-14102929D01*
X14805071Y-14117214D01*
X14790786Y-14102929D01*
X14805071Y-14088643D01*
X14805071Y-14117214D01*
X15005071Y-13817214D02*
X15033643Y-13817214D01*
X15062214Y-13831500D01*
X15076500Y-13845786D01*
X15090785Y-13874357D01*
X15105071Y-13931500D01*
X15105071Y-14002929D01*
X15090785Y-14060071D01*
X15076500Y-14088643D01*
X15062214Y-14102929D01*
X15033643Y-14117214D01*
X15005071Y-14117214D01*
X14976500Y-14102929D01*
X14962214Y-14088643D01*
X14947928Y-14060071D01*
X14933643Y-14002929D01*
X14933643Y-13931500D01*
X14947928Y-13874357D01*
X14962214Y-13845786D01*
X14976500Y-13831500D01*
X15005071Y-13817214D01*
X15362214Y-13817214D02*
X15305071Y-13817214D01*
X15276500Y-13831500D01*
X15262214Y-13845786D01*
X15233643Y-13888643D01*
X15219357Y-13945786D01*
X15219357Y-14060071D01*
X15233643Y-14088643D01*
X15247928Y-14102929D01*
X15276500Y-14117214D01*
X15333643Y-14117214D01*
X15362214Y-14102929D01*
X15376500Y-14088643D01*
X15390785Y-14060071D01*
X15390785Y-13988643D01*
X15376500Y-13960071D01*
X15362214Y-13945786D01*
X15333643Y-13931500D01*
X15276500Y-13931500D01*
X15247928Y-13945786D01*
X15233643Y-13960071D01*
X15219357Y-13988643D01*
X15576500Y-13817214D02*
X15605071Y-13817214D01*
X15633643Y-13831500D01*
X15647928Y-13845786D01*
X15662214Y-13874357D01*
X15676500Y-13931500D01*
X15676500Y-14002929D01*
X15662214Y-14060071D01*
X15647928Y-14088643D01*
X15633643Y-14102929D01*
X15605071Y-14117214D01*
X15576500Y-14117214D01*
X15547928Y-14102929D01*
X15533643Y-14088643D01*
X15519357Y-14060071D01*
X15505071Y-14002929D01*
X15505071Y-13931500D01*
X15519357Y-13874357D01*
X15533643Y-13845786D01*
X15547928Y-13831500D01*
X15576500Y-13817214D01*
X15790786Y-13817214D02*
X15790786Y-13874357D01*
X15905071Y-13817214D02*
X15905071Y-13874357D01*
X16347928Y-14231500D02*
X16333643Y-14217214D01*
X16305071Y-14174357D01*
X16290785Y-14145786D01*
X16276500Y-14102929D01*
X16262214Y-14031500D01*
X16262214Y-13974357D01*
X16276500Y-13902929D01*
X16290785Y-13860071D01*
X16305071Y-13831500D01*
X16333643Y-13788643D01*
X16347928Y-13774357D01*
X16433643Y-13817214D02*
X16619357Y-13817214D01*
X16519357Y-13931500D01*
X16562214Y-13931500D01*
X16590785Y-13945786D01*
X16605071Y-13960071D01*
X16619357Y-13988643D01*
X16619357Y-14060071D01*
X16605071Y-14088643D01*
X16590785Y-14102929D01*
X16562214Y-14117214D01*
X16476500Y-14117214D01*
X16447928Y-14102929D01*
X16433643Y-14088643D01*
X16976500Y-14117214D02*
X16976500Y-13817214D01*
X17105071Y-14117214D02*
X17105071Y-13960071D01*
X17090786Y-13931500D01*
X17062214Y-13917214D01*
X17019357Y-13917214D01*
X16990786Y-13931500D01*
X16976500Y-13945786D01*
X17290786Y-14117214D02*
X17262214Y-14102929D01*
X17247928Y-14088643D01*
X17233643Y-14060071D01*
X17233643Y-13974357D01*
X17247928Y-13945786D01*
X17262214Y-13931500D01*
X17290786Y-13917214D01*
X17333643Y-13917214D01*
X17362214Y-13931500D01*
X17376500Y-13945786D01*
X17390786Y-13974357D01*
X17390786Y-14060071D01*
X17376500Y-14088643D01*
X17362214Y-14102929D01*
X17333643Y-14117214D01*
X17290786Y-14117214D01*
X17562214Y-14117214D02*
X17533643Y-14102929D01*
X17519357Y-14074357D01*
X17519357Y-13817214D01*
X17790786Y-14102929D02*
X17762214Y-14117214D01*
X17705071Y-14117214D01*
X17676500Y-14102929D01*
X17662214Y-14074357D01*
X17662214Y-13960071D01*
X17676500Y-13931500D01*
X17705071Y-13917214D01*
X17762214Y-13917214D01*
X17790786Y-13931500D01*
X17805071Y-13960071D01*
X17805071Y-13988643D01*
X17662214Y-14017214D01*
X17919357Y-14102929D02*
X17947929Y-14117214D01*
X18005071Y-14117214D01*
X18033643Y-14102929D01*
X18047929Y-14074357D01*
X18047929Y-14060071D01*
X18033643Y-14031500D01*
X18005071Y-14017214D01*
X17962214Y-14017214D01*
X17933643Y-14002929D01*
X17919357Y-13974357D01*
X17919357Y-13960071D01*
X17933643Y-13931500D01*
X17962214Y-13917214D01*
X18005071Y-13917214D01*
X18033643Y-13931500D01*
X18147928Y-14231500D02*
X18162214Y-14217214D01*
X18190786Y-14174357D01*
X18205071Y-14145786D01*
X18219357Y-14102929D01*
X18233643Y-14031500D01*
X18233643Y-13974357D01*
X18219357Y-13902929D01*
X18205071Y-13860071D01*
X18190786Y-13831500D01*
X18162214Y-13788643D01*
X18147928Y-13774357D01*
M02*
